<?xml version="1.0" encoding="utf-8"?>
<svg xmlns="http://www.w3.org/2000/svg"
     viewBox="0 0 100 100"
     width="100" height="100"
     color="#FFF" fill="none" stroke="currentColor"
     stroke-width="2" stroke-linecap="round" stroke-linejoin="round">

  <defs>
    <linearGradient id="bgGrad" x1="0%" y1="50%" x2="100%" y2="50%">
      <stop offset="0%"   stop-color="#5b4ed8"/>
      <stop offset="100%" stop-color="#7c6af7"/>
    </linearGradient>
  </defs>

  <g transform="matrix(1.957278, 0, 0, 1.948247, -36.835388, -22.991181)">
    <rect y="11.918" width="51.157" height="51.157" rx="10"
          fill="url(#bgGrad)" x="18.835"/>
    <g transform="matrix(1, 0, 0, 1, 0.120825, 0.761346)">
      <path d="M 44.293 26.431 C 44.302 23.03 40.627 20.892 37.674 22.585 C 36.239 23.408 35.385 24.964 35.459 26.615 C 31.752 27.568 29.923 31.746 31.737 35.115 C 28.513 37.736 28.938 42.779 32.557 44.821 C 31.975 49.32 36.481 52.761 40.668 51.015 C 42.861 50.101 44.29 47.959 44.293 45.582 L 44.293 26.431 Z"/>
      <path d="M 44.293 26.431 C 44.283 23.03 47.96 20.892 50.911 22.585 C 52.346 23.408 53.202 24.964 53.128 26.615 C 56.833 27.568 58.663 31.746 56.849 35.115 C 60.072 37.736 59.647 42.779 56.03 44.821 C 56.611 49.32 52.104 52.761 47.917 51.015 C 45.725 50.101 44.295 47.959 44.293 45.582 L 44.293 26.431 Z"/>
      <path d="M 48.713 38.216 C 46.183 37.327 44.439 35.002 44.293 32.324 C 44.147 35.002 42.403 37.327 39.874 38.216"/>
      <path d="M 52.542 28.641 C 52.898 28.024 53.1 27.328 53.129 26.615"/>
      <path d="M 35.459 26.615 C 35.487 27.328 35.689 28.024 36.045 28.641"/>
      <path d="M 31.737 35.117 C 32.007 34.897 32.294 34.703 32.599 34.534"/>
      <path d="M 55.987 34.534 C 56.291 34.703 56.58 34.897 56.849 35.117"/>
      <path d="M 35.454 45.582 C 34.438 45.584 33.44 45.322 32.557 44.822"/>
      <path d="M 56.03 44.822 C 55.145 45.322 54.147 45.584 53.132 45.582"/>
    </g>
  </g>
</svg>